<svg xmlns="http://www.w3.org/2000/svg" xmlns:xlink="http://www.w3.org/1999/xlink" width="931.81301" height="934.92389" viewBox="0 0 931.81301 934.92389"><defs><style>.cls-1{opacity:0.7;}.cls-2{fill:#262626;opacity:0.4;}.cls-3{fill:#c9c9c9;}.cls-4{fill:#fff;}.cls-5{fill:url(#New_Gradient_Swatch_copy);}</style><linearGradient id="New_Gradient_Swatch_copy" x1="847.86136" y1="239.6182" x2="186.10643" y2="901.37313" gradientUnits="userSpaceOnUse"><stop offset="0" stop-color="#c3c3c3"/><stop offset="0.07894" stop-color="#cacbd0"/><stop offset="0.24783" stop-color="#d5d7e5"/><stop offset="0.4366" stop-color="#dde0f4"/><stop offset="0.65921" stop-color="#e2e5fc"/><stop offset="1" stop-color="#e3e7ff"/></linearGradient></defs><g id="Layer_2" data-name="Layer 2"><g id="Layer_1-2" data-name="Layer 1"><g class="cls-1"><path class="cls-2" d="M628.80128,289.5905c0,259.4213-392.63959,259.6891-392.63959,0C236.16169,30.169,628.80128,29.9011,628.80128,289.5905Zm-51.9158,222.3386c-76.90949,95.94-223.83789,92.1192-295.71139-7.5965C117.53719,560.8727,0,716.2576,0,899.1144c279.47689,46.8859,547.76408,48.5984,835.20048,0C852.46068,724.6051,735.373,574.0713,576.88548,511.9291Z"/><path class="cls-2" d="M674.76318,243.62855c0,259.4213-392.63959,259.6891-392.63959,0C282.12359-15.79295,674.76318-16.06085,674.76318,243.62855Zm-51.91574,222.3386c-76.90951,95.94-223.8379,92.1192-295.7114-7.5965C163.49914,514.91075,45.9619,670.2957,45.9619,853.15245c279.47694,46.8859,547.76413,48.5984,835.20054,0C898.42264,678.64315,781.33493,528.10935,622.84744,465.96715Z"/><path class="cls-2" d="M720.72508,197.6666c0,259.4213-392.63959,259.6891-392.63959,0C328.08549-61.7549,720.72508-62.0228,720.72508,197.6666ZM668.8094,420.0052c-76.90952,95.94-223.83791,92.1192-295.71141-7.5965C209.46109,468.9488,91.9238,624.3338,91.9238,807.1905c279.477,46.8859,547.76418,48.5984,835.2006,0C944.3846,632.6812,827.29688,482.1474,668.8094,420.0052Z"/></g><path class="cls-3" d="M717.72508,200.6666c0,259.4213-392.63959,259.6891-392.63959,0C325.08549-58.7549,717.72508-59.0228,717.72508,200.6666ZM665.8094,423.0052c-76.90952,95.94-223.83791,92.1192-295.71141-7.5965C206.46109,471.9488,88.9238,627.3338,88.9238,810.1905c279.477,46.8859,547.76418,48.5984,835.2006,0C941.3846,635.6812,824.29688,485.1474,665.8094,423.0052Z"/><path class="cls-4" d="M723.72508,194.6666c0,259.4213-392.63959,259.6891-392.63959,0C331.08549-64.7549,723.72508-65.0228,723.72508,194.6666ZM671.8094,417.0052c-76.90952,95.94-223.83791,92.1192-295.71141-7.5965C212.46109,465.9488,94.9238,621.3338,94.9238,804.1905c279.477,46.8859,547.76418,48.5984,835.2006,0C947.3846,629.6812,830.29688,479.1474,671.8094,417.0052Z"/><path class="cls-5" d="M720.72508,197.6666c0,259.4213-392.63959,259.6891-392.63959,0C328.08549-61.7549,720.72508-62.0228,720.72508,197.6666ZM668.8094,420.0052c-76.90952,95.94-223.83791,92.1192-295.71141-7.5965C209.46109,468.9488,91.9238,624.3338,91.9238,807.1905c279.477,46.8859,547.76418,48.5984,835.2006,0C944.3846,632.6812,827.29688,482.1474,668.8094,420.0052Z"/></g></g></svg>